<mxfile host="app.diagrams.net" modified="2022-09-05T11:16:12.219Z" agent="5.0 (Windows NT 10.0; Win64; x64) AppleWebKit/537.36 (KHTML, like Gecko) Chrome/104.0.5112.102 Safari/537.36 Edg/104.0.1293.70" etag="3tCrQ_Aix-OIN0RE7YaD" version="20.2.8" type="github">
  <diagram id="rZX82KpquHxaHBCjdWQ1" name="Page-1">
    <mxGraphModel dx="1278" dy="547" grid="1" gridSize="10" guides="1" tooltips="1" connect="1" arrows="1" fold="1" page="1" pageScale="1" pageWidth="1400" pageHeight="850" math="0" shadow="0">
      <root>
        <mxCell id="0" />
        <mxCell id="1" parent="0" />
        <mxCell id="42Uo9afX71EJ0d4XXodw-41" style="edgeStyle=orthogonalEdgeStyle;rounded=0;orthogonalLoop=1;jettySize=auto;html=1;exitX=1;exitY=0.5;exitDx=0;exitDy=0;entryX=0.011;entryY=0.106;entryDx=0;entryDy=0;entryPerimeter=0;fontSize=10;" parent="1" source="42Uo9afX71EJ0d4XXodw-4" target="42Uo9afX71EJ0d4XXodw-14" edge="1">
          <mxGeometry relative="1" as="geometry" />
        </mxCell>
        <mxCell id="42Uo9afX71EJ0d4XXodw-4" value="" style="rounded=1;whiteSpace=wrap;html=1;glass=0;" parent="1" vertex="1">
          <mxGeometry x="159" y="50" width="120" height="200" as="geometry" />
        </mxCell>
        <mxCell id="42Uo9afX71EJ0d4XXodw-1" value="" style="rounded=0;whiteSpace=wrap;html=1;" parent="1" vertex="1">
          <mxGeometry x="169" y="70" width="100" height="60" as="geometry" />
        </mxCell>
        <mxCell id="42Uo9afX71EJ0d4XXodw-3" value="Load Generator" style="text;html=1;strokeColor=none;fillColor=none;align=center;verticalAlign=middle;whiteSpace=wrap;rounded=0;" parent="1" vertex="1">
          <mxGeometry x="189" y="85" width="60" height="30" as="geometry" />
        </mxCell>
        <mxCell id="42Uo9afX71EJ0d4XXodw-6" value="Locust&#xa;Jmeter&#xa;WebLOAD" style="text;strokeColor=none;fillColor=none;align=center;verticalAlign=middle;spacingLeft=4;spacingRight=4;overflow=hidden;points=[[0,0.5],[1,0.5]];portConstraint=eastwest;rotatable=0;rounded=0;glass=0;" parent="1" vertex="1">
          <mxGeometry x="179" y="147.5" width="80" height="102.5" as="geometry" />
        </mxCell>
        <mxCell id="42Uo9afX71EJ0d4XXodw-25" value="" style="edgeStyle=orthogonalEdgeStyle;rounded=0;orthogonalLoop=1;jettySize=auto;html=1;fontSize=10;" parent="1" edge="1">
          <mxGeometry relative="1" as="geometry">
            <mxPoint x="438" y="150" as="sourcePoint" />
            <mxPoint x="478" y="150" as="targetPoint" />
          </mxGeometry>
        </mxCell>
        <mxCell id="42Uo9afX71EJ0d4XXodw-11" value="" style="rounded=1;whiteSpace=wrap;html=1;glass=0;" parent="1" vertex="1">
          <mxGeometry x="319" y="50" width="120" height="200" as="geometry" />
        </mxCell>
        <mxCell id="42Uo9afX71EJ0d4XXodw-12" value="" style="rounded=0;whiteSpace=wrap;html=1;" parent="1" vertex="1">
          <mxGeometry x="329" y="70" width="100" height="60" as="geometry" />
        </mxCell>
        <mxCell id="42Uo9afX71EJ0d4XXodw-13" value="Load Balancer" style="text;html=1;strokeColor=none;fillColor=none;align=center;verticalAlign=middle;whiteSpace=wrap;rounded=0;" parent="1" vertex="1">
          <mxGeometry x="349" y="85" width="60" height="30" as="geometry" />
        </mxCell>
        <mxCell id="42Uo9afX71EJ0d4XXodw-14" value="AWS load &#xa;balancer&#xa;Nginx&#xa;azure load &#xa;balancer&#xa;" style="text;strokeColor=none;fillColor=none;align=center;verticalAlign=middle;spacingLeft=4;spacingRight=4;overflow=hidden;points=[[0,0.5],[1,0.5]];portConstraint=eastwest;rotatable=0;rounded=0;glass=0;" parent="1" vertex="1">
          <mxGeometry x="314" y="140" width="130" height="102.5" as="geometry" />
        </mxCell>
        <mxCell id="42Uo9afX71EJ0d4XXodw-30" value="" style="edgeStyle=orthogonalEdgeStyle;rounded=0;orthogonalLoop=1;jettySize=auto;html=1;fontSize=10;" parent="1" edge="1">
          <mxGeometry relative="1" as="geometry">
            <mxPoint x="598" y="150" as="sourcePoint" />
            <mxPoint x="639" y="150" as="targetPoint" />
          </mxGeometry>
        </mxCell>
        <mxCell id="42Uo9afX71EJ0d4XXodw-24" value="" style="rounded=1;whiteSpace=wrap;html=1;glass=0;" parent="1" vertex="1">
          <mxGeometry x="479" y="50" width="120" height="200" as="geometry" />
        </mxCell>
        <mxCell id="42Uo9afX71EJ0d4XXodw-26" value="" style="rounded=0;whiteSpace=wrap;html=1;" parent="1" vertex="1">
          <mxGeometry x="489" y="70" width="100" height="60" as="geometry" />
        </mxCell>
        <mxCell id="42Uo9afX71EJ0d4XXodw-27" value="Web&lt;br&gt;Server" style="text;html=1;strokeColor=none;fillColor=none;align=center;verticalAlign=middle;whiteSpace=wrap;rounded=0;" parent="1" vertex="1">
          <mxGeometry x="509" y="85" width="60" height="30" as="geometry" />
        </mxCell>
        <mxCell id="42Uo9afX71EJ0d4XXodw-28" value="Apache&#xa;Nginx" style="text;strokeColor=none;fillColor=none;align=center;verticalAlign=middle;spacingLeft=4;spacingRight=4;overflow=hidden;points=[[0,0.5],[1,0.5]];portConstraint=eastwest;rotatable=0;rounded=0;glass=0;" parent="1" vertex="1">
          <mxGeometry x="473" y="140" width="130" height="102.5" as="geometry" />
        </mxCell>
        <mxCell id="42Uo9afX71EJ0d4XXodw-36" value="" style="edgeStyle=orthogonalEdgeStyle;rounded=0;orthogonalLoop=1;jettySize=auto;html=1;fontSize=10;" parent="1" edge="1">
          <mxGeometry relative="1" as="geometry">
            <mxPoint x="759" y="150" as="sourcePoint" />
            <mxPoint x="789" y="150" as="targetPoint" />
          </mxGeometry>
        </mxCell>
        <mxCell id="42Uo9afX71EJ0d4XXodw-29" value="" style="rounded=1;whiteSpace=wrap;html=1;glass=0;" parent="1" vertex="1">
          <mxGeometry x="640" y="50" width="120" height="200" as="geometry" />
        </mxCell>
        <mxCell id="42Uo9afX71EJ0d4XXodw-31" value="" style="rounded=0;whiteSpace=wrap;html=1;" parent="1" vertex="1">
          <mxGeometry x="650" y="70" width="100" height="60" as="geometry" />
        </mxCell>
        <mxCell id="42Uo9afX71EJ0d4XXodw-32" value="Protocol" style="text;html=1;strokeColor=none;fillColor=none;align=center;verticalAlign=middle;whiteSpace=wrap;rounded=0;" parent="1" vertex="1">
          <mxGeometry x="670" y="85" width="60" height="30" as="geometry" />
        </mxCell>
        <mxCell id="42Uo9afX71EJ0d4XXodw-34" value="HTTP&#xa;HTTPS&#xa;GRPC&#xa;WebSocket" style="text;strokeColor=none;fillColor=none;align=center;verticalAlign=middle;spacingLeft=4;spacingRight=4;overflow=hidden;points=[[0,0.5],[1,0.5]];portConstraint=eastwest;rotatable=0;rounded=0;glass=0;" parent="1" vertex="1">
          <mxGeometry x="635" y="140" width="130" height="102.5" as="geometry" />
        </mxCell>
        <mxCell id="42Uo9afX71EJ0d4XXodw-43" value="" style="edgeStyle=orthogonalEdgeStyle;rounded=0;orthogonalLoop=1;jettySize=auto;html=1;fontSize=10;" parent="1" source="42Uo9afX71EJ0d4XXodw-35" target="42Uo9afX71EJ0d4XXodw-42" edge="1">
          <mxGeometry relative="1" as="geometry" />
        </mxCell>
        <mxCell id="42Uo9afX71EJ0d4XXodw-35" value="" style="rounded=1;whiteSpace=wrap;html=1;glass=0;" parent="1" vertex="1">
          <mxGeometry x="796" y="50" width="120" height="200" as="geometry" />
        </mxCell>
        <mxCell id="42Uo9afX71EJ0d4XXodw-37" value="Appication&lt;br&gt;Server" style="rounded=0;whiteSpace=wrap;html=1;" parent="1" vertex="1">
          <mxGeometry x="806" y="70" width="100" height="60" as="geometry" />
        </mxCell>
        <mxCell id="42Uo9afX71EJ0d4XXodw-39" value="Node.js&#xa;Django&#xa;Wordpress&#xa;Tomcat&#xa;Joomla" style="text;strokeColor=none;fillColor=none;align=center;verticalAlign=middle;spacingLeft=4;spacingRight=4;overflow=hidden;points=[[0,0.5],[1,0.5]];portConstraint=eastwest;rotatable=0;rounded=0;glass=0;" parent="1" vertex="1">
          <mxGeometry x="785" y="140" width="130" height="102.5" as="geometry" />
        </mxCell>
        <mxCell id="42Uo9afX71EJ0d4XXodw-47" value="" style="edgeStyle=orthogonalEdgeStyle;rounded=0;orthogonalLoop=1;jettySize=auto;html=1;fontSize=10;" parent="1" source="42Uo9afX71EJ0d4XXodw-42" target="42Uo9afX71EJ0d4XXodw-46" edge="1">
          <mxGeometry relative="1" as="geometry" />
        </mxCell>
        <mxCell id="42Uo9afX71EJ0d4XXodw-42" value="" style="rounded=1;whiteSpace=wrap;html=1;glass=0;" parent="1" vertex="1">
          <mxGeometry x="959" y="50" width="120" height="200" as="geometry" />
        </mxCell>
        <mxCell id="42Uo9afX71EJ0d4XXodw-44" value="Database" style="rounded=0;whiteSpace=wrap;html=1;" parent="1" vertex="1">
          <mxGeometry x="969" y="70" width="100" height="60" as="geometry" />
        </mxCell>
        <mxCell id="42Uo9afX71EJ0d4XXodw-45" value="Managed&#xa;VM based&#xa;MySQL&#xa;Postgres SQL" style="text;strokeColor=none;fillColor=none;align=center;verticalAlign=middle;spacingLeft=4;spacingRight=4;overflow=hidden;points=[[0,0.5],[1,0.5]];portConstraint=eastwest;rotatable=0;rounded=0;glass=0;" parent="1" vertex="1">
          <mxGeometry x="954" y="140" width="130" height="102.5" as="geometry" />
        </mxCell>
        <mxCell id="42Uo9afX71EJ0d4XXodw-46" value="" style="rounded=1;whiteSpace=wrap;html=1;glass=0;" parent="1" vertex="1">
          <mxGeometry x="1129" y="50" width="120" height="200" as="geometry" />
        </mxCell>
        <mxCell id="42Uo9afX71EJ0d4XXodw-48" value="Caching" style="rounded=0;whiteSpace=wrap;html=1;" parent="1" vertex="1">
          <mxGeometry x="1139" y="70" width="100" height="60" as="geometry" />
        </mxCell>
        <mxCell id="42Uo9afX71EJ0d4XXodw-49" value="Memecache&#xa;Redis" style="text;strokeColor=none;fillColor=none;align=center;verticalAlign=middle;spacingLeft=4;spacingRight=4;overflow=hidden;points=[[0,0.5],[1,0.5]];portConstraint=eastwest;rotatable=0;rounded=0;glass=0;" parent="1" vertex="1">
          <mxGeometry x="1124" y="140" width="130" height="102.5" as="geometry" />
        </mxCell>
      </root>
    </mxGraphModel>
  </diagram>
</mxfile>
